<?xml version="1.0" encoding="utf-8"?>
<!-- Generator: Adobe Illustrator 25.2.2, SVG Export Plug-In . SVG Version: 6.00 Build 0)  -->
<svg version="1.1" id="Ebene_1" xmlns="http://www.w3.org/2000/svg" xmlns:xlink="http://www.w3.org/1999/xlink" x="0px" y="0px"
	 viewBox="0 0 257.3 63.2" style="enable-background:new 0 0 257.3 63.2;" xml:space="preserve">
<style type="text/css">
	.st0{fill:#2F4749;}
</style>
<g>
	<path class="st0" d="M57.4,48.6h2.2v14.2h-2.2V48.6z"/>
	<path class="st0" d="M73.4,62.8V51.7h-0.1l-3,11.2h-1.9l-2.9-11.2h-0.1v11.2h-2V48.6h3.2l2.7,10.7h0.1l2.7-10.7h3.4v14.2H73.4z"/>
	<path class="st0" d="M83.2,61.1l5.1-10.6h-4.8v-1.9h7.1v1.7l-5,10.5h5v2h-7.4V61.1z"/>
	<path class="st0" d="M97.7,63.2c-0.8,0-1.5-0.1-2.1-0.4c-0.6-0.3-1-0.7-1.4-1.2c-0.3-0.5-0.6-1-0.7-1.7c-0.1-0.6-0.2-1.3-0.2-2
		v-9.4h2.2v9.2c0,0.5,0,0.9,0.1,1.3c0.1,0.4,0.2,0.8,0.4,1.1c0.2,0.3,0.4,0.6,0.7,0.7c0.3,0.2,0.6,0.3,1.1,0.3
		c0.4,0,0.8-0.1,1.1-0.3s0.5-0.4,0.7-0.7c0.2-0.3,0.3-0.7,0.4-1.1c0.1-0.4,0.1-0.9,0.1-1.3v-9.2h2.2V58c0,0.7-0.1,1.4-0.2,2
		c-0.2,0.6-0.4,1.2-0.8,1.7c-0.4,0.5-0.8,0.9-1.4,1.2C99.3,63.1,98.6,63.2,97.7,63.2z"/>
	<path class="st0" d="M110.6,63.2c-0.9,0-1.6-0.2-2.3-0.6c-0.7-0.4-1.2-0.9-1.7-1.6c-0.5-0.7-0.8-1.5-1.1-2.4
		c-0.2-0.9-0.4-1.9-0.4-3c0-1.1,0.1-2,0.3-3c0.2-0.9,0.6-1.7,1-2.4c0.5-0.7,1-1.2,1.6-1.6c0.6-0.4,1.4-0.6,2.2-0.6
		c0.8,0,1.5,0.1,2.1,0.4c0.6,0.3,1.2,0.8,1.6,1.4l-1.4,1.5c-0.3-0.5-0.7-0.8-1.1-1.1c-0.4-0.2-0.8-0.3-1.2-0.3
		c-0.5,0-0.9,0.1-1.3,0.4c-0.4,0.3-0.7,0.7-0.9,1.1c-0.2,0.5-0.4,1.1-0.6,1.7c-0.1,0.7-0.2,1.4-0.2,2.1c0,0.8,0.1,1.6,0.2,2.2
		c0.1,0.7,0.3,1.3,0.6,1.7c0.3,0.5,0.6,0.9,1,1.1c0.4,0.3,0.8,0.4,1.3,0.4c0.6,0,1.1-0.1,1.5-0.4v-4h-1.9v-1.9h4V62
		c-0.5,0.4-1,0.7-1.6,0.9S111.4,63.2,110.6,63.2z"/>
	<path class="st0" d="M122.2,50.4c-0.3-0.2-0.7-0.3-1.2-0.3c-0.5,0-0.9,0.2-1.3,0.5c-0.4,0.4-0.6,0.9-0.6,1.7c0,0.6,0.2,1.1,0.6,1.5
		c0.4,0.3,0.9,0.7,1.4,1c0.4,0.2,0.7,0.4,1.1,0.7c0.4,0.2,0.7,0.5,1,0.8c0.3,0.3,0.5,0.7,0.7,1.1c0.2,0.4,0.3,1,0.3,1.6
		c0,0.7-0.1,1.3-0.3,1.8c-0.2,0.5-0.5,1-0.8,1.3c-0.4,0.4-0.8,0.7-1.3,0.9c-0.5,0.2-1,0.3-1.6,0.3c-0.8,0-1.5-0.2-2.2-0.5
		c-0.7-0.3-1.2-0.8-1.7-1.3l1.4-1.5c0.4,0.5,0.8,0.8,1.2,1c0.4,0.2,0.9,0.3,1.3,0.3c0.6,0,1-0.2,1.4-0.6c0.3-0.4,0.5-0.9,0.5-1.6
		c0-0.4-0.1-0.7-0.2-0.9c-0.1-0.3-0.3-0.5-0.5-0.7c-0.2-0.2-0.5-0.4-0.7-0.6c-0.3-0.2-0.6-0.3-0.8-0.5c-0.4-0.2-0.7-0.4-1-0.6
		c-0.3-0.2-0.6-0.5-0.9-0.8c-0.3-0.3-0.5-0.7-0.7-1.1c-0.2-0.4-0.3-1-0.3-1.6c0-0.7,0.1-1.3,0.3-1.8c0.2-0.5,0.5-1,0.9-1.3
		c0.4-0.3,0.8-0.6,1.3-0.8c0.5-0.2,1-0.3,1.5-0.3c0.7,0,1.4,0.1,1.9,0.4c0.6,0.2,1.1,0.6,1.5,1.2l-1.4,1.5
		C122.8,50.8,122.5,50.6,122.2,50.4z"/>
	<path class="st0" d="M129.4,56.9v5.9h-2.2V48.6h3.8c0.5,0,0.9,0.1,1.4,0.2c0.5,0.1,0.9,0.4,1.3,0.7c0.4,0.3,0.7,0.7,0.9,1.3
		c0.2,0.5,0.4,1.2,0.4,2c0,0.7-0.1,1.3-0.3,1.8c-0.2,0.5-0.5,1-0.9,1.3c-0.4,0.4-0.8,0.6-1.2,0.8c-0.5,0.2-1,0.3-1.5,0.3H129.4z
		 M129.4,50.5v4.5h1.4c0.6,0,1-0.2,1.4-0.6c0.4-0.4,0.5-1,0.5-1.8c0-0.8-0.2-1.3-0.5-1.7c-0.4-0.3-0.8-0.5-1.4-0.5H129.4z"/>
	<path class="st0" d="M137.6,48.6h2.2v14.2h-2.2V48.6z"/>
	<path class="st0" d="M146.6,62.8h-2.2V50.5h-2.7v-1.9h7.6v1.9h-2.7V62.8z"/>
	<path class="st0" d="M150.2,61.1l5.1-10.6h-4.8v-1.9h7.1v1.7l-5,10.5h5v2h-7.4V61.1z"/>
	<path class="st0" d="M160.5,48.6h2.2v12.2h4v2h-6.2V48.6z"/>
	<path class="st0" d="M174.6,62.8l-0.7-3.1H170l-0.7,3.1h-2.2l3.5-14.2h2.8l3.4,14.2H174.6z M172,50.7L172,50.7l-1.7,7.2h3.2
		L172,50.7z"/>
	<path class="st0" d="M185.2,62.8l-4.1-10.7h-0.1v10.7H179V48.6h2.8l4,11h0.1v-11h2v14.2H185.2z"/>
	<path class="st0" d="M191.7,62.8V48.6h3.5c1.8,0,3.1,0.6,4.1,1.9c1,1.2,1.4,3,1.4,5.3c0,2.3-0.5,4-1.5,5.2c-1,1.2-2.3,1.8-4.1,1.8
		H191.7z M193.9,50.6v10.3h1.2c0.5,0,0.9-0.1,1.3-0.3c0.4-0.2,0.8-0.5,1-0.9c0.3-0.4,0.5-0.9,0.7-1.6c0.2-0.6,0.3-1.4,0.3-2.3
		c0-0.9-0.1-1.7-0.3-2.3c-0.2-0.6-0.4-1.2-0.7-1.6c-0.3-0.4-0.6-0.7-1-0.9c-0.4-0.2-0.8-0.3-1.3-0.3H193.9z"/>
</g>
<g>
	<path class="st0" d="M0,33.9c0.4-0.4,0.8-0.8,1.1-1.1c0.3-0.3,0.5-0.7,0.6-1c0.1-0.3,0.2-0.7,0.2-1.2c0-0.4,0.1-1,0.1-1.6v-1.7
		L2,5.8c0-0.7,0-1.3-0.1-1.8c0-0.4-0.1-0.8-0.2-1.2c-0.1-0.3-0.3-0.7-0.6-1S0.5,1.2,0.1,0.7h22.4v7.2c-0.4-0.8-0.9-1.5-1.4-2.1
		c-0.5-0.5-1-0.9-1.6-1.3c-0.6-0.3-1.3-0.5-2.1-0.7c-0.8-0.1-1.7-0.2-2.9-0.2h-3.8v11.1h2.4c3.4,0,5.6-1.1,6.6-3.3V21
		c-0.5-0.7-0.9-1.2-1.2-1.5c-0.3-0.3-0.7-0.6-1.1-0.8c-0.9-0.6-2.3-0.8-4.1-0.8h-2.7V29c0,0.7,0,1.2,0.1,1.7c0,0.4,0.1,0.8,0.2,1.1
		c0.1,0.3,0.3,0.6,0.5,1c0.2,0.3,0.6,0.7,1,1.1H0z"/>
	<path class="st0" d="M21.4,33.9c0.6-0.4,1.1-0.8,1.5-1.1s0.7-0.6,0.9-1c0.3-0.3,0.5-0.7,0.7-1.2c0.2-0.4,0.5-1,0.7-1.7l1-2.7
		L33,7.3c0.4-1,0.6-1.8,0.7-2.2c0.1-0.4,0.2-0.8,0.2-1.1c0-0.6-0.1-1.1-0.3-1.5c-0.2-0.5-0.5-1.1-1.1-1.8H43L54.4,29
		c0.2,0.6,0.5,1.2,0.7,1.6s0.5,0.8,0.8,1.1c0.3,0.3,0.6,0.7,1,1c0.4,0.3,0.8,0.7,1.4,1.1h-12c0.1-0.7,0.2-1.2,0.2-1.6
		c0-0.4-0.1-0.8-0.2-1.3c-0.1-0.5-0.4-1.2-0.7-2.1l-3.6-8.8h-9.7L29,29c-0.2,0.5-0.3,0.9-0.4,1.3c0,0.4-0.1,0.7-0.1,1.1
		c0,0.4,0.1,0.8,0.4,1.2c0.3,0.3,0.7,0.8,1.4,1.4H21.4z M36.7,6.9L33.2,17h7.4L36.7,6.9z"/>
	<path class="st0" d="M59.9,33.9c0.4-0.4,0.7-0.8,1-1.1c0.3-0.3,0.5-0.7,0.6-1c0.1-0.3,0.2-0.7,0.3-1.1c0-0.4,0.1-1,0.1-1.6V5.7
		c0-0.7,0-1.2-0.1-1.7c0-0.4-0.1-0.8-0.2-1.1c-0.1-0.3-0.3-0.6-0.6-0.9s-0.6-0.7-1-1.1c0.8,0,1.6,0.1,2.3,0.1c0.7,0,1.3,0,1.9,0
		c0.9,0,1.8,0,2.8,0c0.9,0,2.2-0.1,3.7-0.3c1.3-0.1,2.5-0.2,3.5-0.3c1.1-0.1,1.9-0.1,2.4-0.1c3.4,0,6,0.6,7.7,1.9
		c1.8,1.3,2.6,3.2,2.6,5.7c0,4.2-2.6,6.9-7.7,8.3c0.6,1,1.1,1.8,1.5,2.5c0.4,0.7,0.8,1.4,1.2,1.9c0.4,0.6,0.8,1.1,1.1,1.7
		c0.4,0.5,0.8,1.1,1.3,1.8l3.7,5c0.6,0.8,1,1.4,1.4,1.9c0.4,0.5,0.7,0.9,1,1.2c0.3,0.3,0.6,0.5,0.9,0.7c0.3,0.2,0.7,0.4,1.1,0.5
		c-0.8,0.3-1.5,0.5-2,0.6c-0.5,0.1-1.1,0.2-2,0.2c-2.3,0-4.4-0.4-6.1-1.1c-1-0.4-1.9-1.1-2.8-2c-0.9-0.9-1.9-2.2-3-3.8L72.4,21
		l-1.9-2.9V29c0,0.6,0,1.2,0.1,1.6c0,0.4,0.1,0.8,0.2,1.2c0.1,0.3,0.3,0.7,0.6,1c0.3,0.3,0.6,0.7,1.1,1.1H59.9z M70.5,3.6V16h0.7
		c2.5,0,4.3-0.6,5.5-1.7c1.2-1.1,1.8-2.8,1.8-5.1c0-1.9-0.5-3.4-1.4-4.4c-0.9-1-2.2-1.5-4-1.5c-0.3,0-0.6,0-1,0.1
		C71.7,3.4,71.2,3.5,70.5,3.6z"/>
	<path class="st0" d="M118.9,0.5v9.3c-1-2.4-2.2-4.1-3.6-5.2c-1.3-1.1-3-1.6-4.9-1.6c-1.4,0-2.6,0.3-3.7,1c-1.1,0.6-2.1,1.6-2.8,2.8
		c-0.8,1.2-1.4,2.7-1.8,4.4c-0.4,1.7-0.6,3.6-0.6,5.7s0.2,4,0.7,5.7c0.4,1.7,1.1,3.1,1.9,4.3c0.8,1.2,1.8,2.1,3,2.8
		c1.2,0.6,2.5,1,3.9,1c3.1,0,6-1.7,8.6-5l-0.5,4.5c-0.3,0.3-0.6,0.5-0.8,0.8c-0.2,0.2-0.4,0.4-0.6,0.5c-1.2,1-2.7,1.9-4.4,2.4
		c-1.7,0.6-3.6,0.9-5.5,0.9c-2.3,0-4.3-0.4-6.2-1.2c-1.9-0.8-3.5-1.9-4.8-3.4c-1.4-1.5-2.4-3.2-3.1-5.2c-0.7-2-1.1-4.3-1.1-6.8
		c0-2.7,0.4-5.1,1.2-7.3c0.8-2.2,1.9-4.1,3.3-5.7c1.4-1.6,3.1-2.9,5-3.7c2-0.9,4.1-1.3,6.5-1.3c0.7,0,1.4,0,2.1,0.1
		c0.7,0,1.5,0.1,2.4,0.3c1,0.2,1.7,0.3,2.3,0.4s1,0.1,1.4,0.1c0.4,0,0.7,0,1-0.1C117.9,0.7,118.4,0.7,118.9,0.5z"/>
	<path class="st0" d="M123.8,33.9c0.4-0.4,0.8-0.8,1.1-1.1c0.3-0.3,0.5-0.7,0.6-1c0.1-0.3,0.2-0.7,0.3-1.1c0-0.4,0.1-1,0.1-1.7V5.7
		c0-0.6,0-1.2-0.1-1.6c0-0.4-0.1-0.8-0.2-1.1c-0.1-0.3-0.3-0.7-0.5-1c-0.2-0.3-0.5-0.7-0.9-1.2h12.2c-0.4,0.4-0.7,0.8-1,1.2
		c-0.2,0.3-0.4,0.7-0.5,1c-0.1,0.3-0.2,0.7-0.3,1.1c0,0.4-0.1,1-0.1,1.6v8.9h11.2V5.7c0-0.7,0-1.2,0-1.7c0-0.4-0.1-0.8-0.2-1.2
		c-0.1-0.3-0.3-0.7-0.5-1c-0.2-0.3-0.6-0.7-1-1.1h12.4c-0.8,0.9-1.3,1.7-1.6,2.3c-0.2,0.6-0.4,1.5-0.4,2.7V29c0,0.7,0,1.3,0.1,1.8
		c0,0.5,0.1,0.9,0.2,1.2c0.1,0.3,0.3,0.6,0.5,0.9c0.2,0.3,0.6,0.6,1,1h-12.6c0.4-0.4,0.8-0.8,1.1-1.2c0.3-0.3,0.5-0.7,0.6-1
		c0.2-0.3,0.3-0.7,0.3-1.1c0-0.4,0.1-0.9,0.1-1.5V17.8h-11.2V29c0,0.7,0,1.2,0.1,1.7c0,0.4,0.1,0.8,0.3,1.1c0.1,0.3,0.3,0.6,0.6,1
		c0.2,0.3,0.6,0.7,1.1,1.1H123.8z"/>
	<path class="st0" d="M157.9,33.9c0.6-0.4,1.1-0.8,1.5-1.1c0.4-0.3,0.7-0.6,0.9-1c0.3-0.3,0.5-0.7,0.7-1.2c0.2-0.4,0.5-1,0.7-1.7
		l1-2.7l6.8-18.9c0.4-1,0.6-1.8,0.7-2.2c0.1-0.4,0.2-0.8,0.2-1.1c0-0.6-0.1-1.1-0.3-1.5c-0.2-0.5-0.5-1.1-1.1-1.8h10.5L190.9,29
		c0.2,0.6,0.5,1.2,0.7,1.6c0.2,0.4,0.5,0.8,0.8,1.1c0.3,0.3,0.6,0.7,1,1c0.4,0.3,0.8,0.7,1.4,1.1h-12c0.1-0.7,0.2-1.2,0.2-1.6
		c0-0.4-0.1-0.8-0.2-1.3c-0.1-0.5-0.4-1.2-0.7-2.1l-3.6-8.8h-9.7l-3.1,8.8c-0.2,0.5-0.3,0.9-0.4,1.3c0,0.4-0.1,0.7-0.1,1.1
		c0,0.4,0.1,0.8,0.4,1.2c0.3,0.3,0.7,0.8,1.4,1.4H157.9z M173.2,6.9L169.7,17h7.4L173.2,6.9z"/>
	<path class="st0" d="M196.3,33.9c0.4-0.4,0.7-0.8,1-1.1c0.3-0.3,0.5-0.7,0.6-1c0.1-0.3,0.2-0.7,0.2-1.1c0-0.4,0.1-1,0.1-1.6v-1.7
		l0.1-21.3c0-0.7,0-1.2,0-1.7c0-0.4-0.1-0.8-0.2-1.2c-0.1-0.4-0.3-0.7-0.5-1.1c-0.2-0.3-0.5-0.8-0.9-1.2h9.7L222.2,25V5.6
		c0-0.7,0-1.3,0-1.7c0-0.4-0.1-0.8-0.2-1.1c-0.1-0.3-0.3-0.6-0.5-0.9c-0.2-0.3-0.5-0.7-0.9-1.1h6.7c-0.4,0.5-0.7,0.9-0.9,1.2
		c-0.2,0.3-0.4,0.7-0.5,1c-0.1,0.3-0.2,0.7-0.2,1.1c0,0.4-0.1,0.9-0.1,1.5v28.2h-8L201.8,9.9v19c0,0.7,0,1.2,0,1.7
		c0,0.4,0.1,0.8,0.2,1.1c0.1,0.3,0.3,0.7,0.5,1c0.2,0.3,0.6,0.7,1,1.1H196.3z"/>
	<path class="st0" d="M230.2,8.8v-8h27.1v8.1c-0.7-1.8-1.6-3-2.8-3.7c-1.1-0.7-2.7-1.1-4.8-1.1h-1.6V29c0,0.7,0,1.2,0.1,1.7
		c0,0.4,0.1,0.8,0.2,1.1c0.1,0.3,0.3,0.6,0.5,1c0.2,0.3,0.6,0.7,1,1.1h-12.5c0.4-0.4,0.7-0.8,1-1.1c0.3-0.3,0.5-0.7,0.6-1
		c0.1-0.3,0.2-0.7,0.3-1.2c0-0.4,0.1-1,0.1-1.6v-1.6l0.1-23.3h-1.5c-1.3,0-2.3,0.1-3,0.3c-0.7,0.2-1.4,0.5-2.1,1
		c-0.7,0.4-1.2,0.9-1.6,1.4C231.1,7.1,230.7,7.8,230.2,8.8z"/>
</g>
</svg>
