<?xml version="1.0" encoding="UTF-8"?>
<svg xmlns="http://www.w3.org/2000/svg" xmlns:xlink="http://www.w3.org/1999/xlink" width="200px" height="65px" viewBox="0 0 200 65" version="1.1">
    
    <title>logo</title>
    <desc>Created with Sketch.</desc>
    <defs/>
    <g id="Symbols" stroke="none" stroke-width="1" fill="none" fill-rule="evenodd">
        <g id="FOOTER-DSGVO-Konform" transform="translate(-860.000000, -495.000000)">
            <g id="FOOTER" transform="translate(0.000000, 1.000000)">
                <g id="footer" transform="translate(0.000000, 412.000000)">
                    <g id="logo" transform="translate(860.000000, 82.000000)">
                        <path d="M27.8215654,40.0347024 C27.9032148,39.6389358 27.5702924,38.9260894 27.4311435,38.5460601 C27.2045952,37.9276383 26.9055976,37.2981419 26.4369762,36.8306826 C25.7429566,36.1394023 24.8373386,35.6492112 23.9621954,35.2487815 C22.7667797,34.7049666 21.6449634,34.1500773 20.3500735,33.8842899 C19.1776576,33.6453144 17.9017425,33.4821117 16.7080518,33.6686291 C15.7012346,33.8271689 14.6926925,33.9973661 13.6922002,34.2007867 C12.4542349,34.4531681 11.2668691,35.0418638 10.120903,35.5652783 C8.94503712,36.0991845 7.81574589,36.7741445 6.72785434,37.4770821 C5.57268832,38.2219861 4.31632308,38.9680558 3.49177949,40.1093094 C3.25430633,40.4374635 2.98003346,40.8967627 3.07145775,41.3240042 C3.18243189,41.8468359 3.64300331,42.8278011 4.25824853,42.8715161 C4.77976948,42.8936651 5.2403409,42.2478484 5.49218895,41.8742307 C5.83431129,41.3735479 6.15515879,40.8571278 6.5013061,40.3593594 C6.99177729,39.655256 7.43567384,39.0426628 8.12106852,38.4988479 C9.26588462,37.5936555 10.6447239,37.0218629 11.9821635,36.4646421 C12.9148063,36.0747041 13.72555,35.8637062 14.752492,35.9010097 C15.3165626,35.9219929 15.8806332,35.9441419 16.4435539,35.9645422 C18.0587163,36.0239947 19.5617546,36.0129202 21.1096426,36.5567351 C22.3631329,37.0008797 23.9495455,37.7848358 24.7602892,38.8887859 C25.5951827,40.0224622 25.5555081,41.6224321 24.9856875,42.8639388 C23.6729727,45.7252329 20.6536711,45.9945175 17.8925426,46.1029307 C17.7620186,46.1058451 17.4992457,46.075536 17.4175963,46.2177555 C17.3169721,46.3931985 17.4417461,46.5074404 17.5923949,46.5581499 C18.1662405,46.7487474 18.8148354,46.8542463 19.4139808,46.9148645 C20.80662,47.0576669 22.2073091,46.776725 23.4774742,46.1897779 C24.5118912,45.7100784 25.5974827,45.0351184 26.3478519,44.1567378 C27.0775212,43.3045863 27.4995679,42.2239509 27.7013914,41.1229151 C27.7646409,40.7638691 27.8077656,40.3995772 27.8215654,40.0347024" id="Path" fill="#766E66"/>
                        <path d="M3.92198185,53.4467063 C5.548779,54.9292902 5.77428715,55.0294261 6.88148564,55.0294261 C8.42110181,55.0294261 9.7939117,54.215178 10.9981717,52.5872539 C12.1861579,50.9244253 13.2608088,49.4704517 13.8704945,48.1206194 C15.1090457,45.3883391 15.9390086,40.8106968 16.1383625,38.6300224 C16.5382326,34.5473376 16.4568637,35.5698685 16.6899275,32.6516215 C16.7928011,31.4568568 15.2909633,31.3824701 14.1907393,31.3824701 C13.6566105,31.3824701 13.5955838,31.4528514 12.47618,31.7051939 C11.3573573,31.9529588 10.5140266,32.078844 9.9450254,32.078844 C8.60883153,32.078844 7.57137782,31.5844586 6.83557032,30.6042709 C6.20263638,29.7442464 5.88355398,28.667356 5.88355398,27.3793219 C5.88355398,25.2673122 5.87251106,23.000807 7.38074207,20.4825315 C8.15142197,19.1326992 8.80411693,17.7685618 10.5140266,15.2811854 C13.9663936,11.199645 18.1040031,9.16030534 22.9297611,9.16030534 C24.2706046,9.16030534 25.4260433,9.43553609 26.3984018,9.98485317 C27.4695655,10.6629164 28.2065354,11.7111965 28.2065354,12.8796398 C28.2065354,12.8796398 28.649996,15.3321116 26.4966257,17.3382634 C25.6742185,18.1015853 24.9081882,18.7230002 24.9081882,18.7230002 C24.9081882,18.7230002 22.2113898,21.077625 22.1306021,20.1065926 C22.0968921,19.711771 23.3156823,18.7092673 24.409513,17.0515886 C25.0395409,16.0965779 25.1650815,14.853748 25.1650815,13.7539694 C25.1650815,12.8613292 24.2781603,12.0934297 23.509224,11.4193718 C22.7385441,10.7447418 21.8673155,10.4077129 20.897863,10.4077129 C18.2533731,10.4077129 15.6425933,12.2914127 13.0649422,16.0628178 C10.3873236,20.018473 8.6593965,23.6874533 8.6593965,26.2326225 C8.6593965,27.2780416 9.00986405,28.2410631 9.71254278,29.1268369 C10.4814791,30.1093134 11.8072112,30.1842723 12.9109225,30.1842723 C13.8141175,30.1842723 14.9189911,29.4386888 16.2237998,27.9515272 C17.5309334,26.4609324 18.6520808,25.7187821 19.586661,25.7187821 C19.958052,25.7187821 20.2730659,25.8807162 20.5421646,26.2017234 C20.8101008,26.5233028 20.9257609,26.8534652 20.8961194,27.1893497 C20.6886286,28.2679567 20.4491715,29.8460989 20.1812353,31.9306428 C20.1457817,32.9772063 19.6662863,34.3762482 19.5680624,36.3984217 C19.2640913,40.70255 17.6239264,46.7976808 15.8797256,50.3247542 C15.1427556,51.8319429 13.3508958,53.376325 10.5000777,54.9744944 C8.59197654,56.0473793 8.04041152,56.4885496 6.19973035,56.4885496 C3.58371963,56.4885496 2.20800371,54.9670557 0,53.0593233 C0,53.0593233 0.705584761,50.5101487 3.92198185,53.4467063" id="Fill-1" fill="#766E66"/>
                        <path d="M31.0890611,23.8869861 C30.6877406,22.9717336 29.7740462,23.1856739 29.2381688,23.1856739 C28.3785322,23.1856739 27.0200361,24.5150782 26.4835711,25.5613263 C26.0182039,26.4308162 25.7837576,27.3283358 25.7837576,28.2515968 C25.7837576,29.4694548 25.727937,30.6672916 26.9119205,30.0798138 C28.0988418,29.4917641 31.4927319,24.7970904 31.0890611,23.8869861 M41.221374,29.8435643 C41.221374,30.0180343 41.1567397,30.1913602 41.0321717,30.3646862 C40.5474142,31.0265282 39.9780445,31.4669935 39.3158364,31.6763575 C38.8134514,31.8496835 38.0889593,31.9406367 37.1394222,31.9406367 C36.9437564,31.9406367 35.9137202,31.9320562 34.0534266,31.910319 C33.263125,31.910319 32.6579126,31.6609127 32.2272129,31.1495153 C32.1537648,31.0648544 31.9322453,30.5666138 31.5556034,29.6536494 C31.2518221,28.9185871 30.9392269,28.5542022 30.6184056,28.5542022 C30.2411762,28.5542022 29.6770947,29.0164048 28.9255737,29.9413819 C28.5148519,30.500258 28.0935536,31.0659985 27.6622663,31.6448957 C27.4836405,31.8714207 27.1269765,32.1259754 26.5905115,32.4022672 C26.0540466,32.6819913 25.6339234,32.8244275 25.3289669,32.8244275 C24.2196067,32.8244275 23.6649266,32.1271194 23.6649266,30.7325033 C23.6649266,29.9665513 23.6308467,28.8905575 24.0063134,28.0559616 C24.2395846,27.4982296 24.6062375,26.688231 25.108035,25.6231059 C25.5704643,24.7175778 26.2867302,23.7371135 27.2515445,22.684001 C28.2210595,21.6308886 29.4167946,21.3740458 30.4051123,21.3740458 C31.1877753,21.3740458 31.8611476,21.6257403 32.4152401,22.1285571 C32.9887229,22.6822849 33.1544218,23.8520921 33.2437347,25.0802467 C33.3694778,26.4811551 33.7243791,28.0405167 33.9112311,28.6039691 C34.4447581,30.2005128 36.331493,29.9871445 36.8139002,29.9871445 L40.2242426,29.3207262 C40.8893886,29.3029932 41.221374,29.4774632 41.221374,29.8435643" id="Fill-3" fill="#766E66"/>
                        <path d="M39.0489325,31.2977099 C38.7143622,31.2977099 36.6069738,30.3622725 36.6416443,30.0271032 C36.6416443,30.0271032 38.8328198,29.6983571 38.8738465,28.1276163 C38.9044721,26.9189049 38.9715017,25.4982312 38.9715017,25.4982312 C38.9715017,25.1940096 38.9501216,24.7432245 38.9067835,24.1511311 C38.8622897,23.5526146 38.8426431,23.1035813 38.8426431,22.8028633 C38.8426431,22.3211305 39.6400645,20.733456 40.1323855,20.733456 C40.4288183,20.733456 40.5923475,20.8689251 41.060977,21.2128531 C41.5261395,21.5620364 41.2759341,22.1261017 41.5394299,22.1261017 C41.7728779,22.1261017 43.1926347,21.4172246 44.1426064,20.7083475 C45.0948893,19.9971348 45.1122246,20.0450161 45.5976116,19.8762636 C46.0835764,19.708679 46.9491831,20.3206256 47.0087008,20.3924476 C47.0722634,20.4625178 48.2545273,20.9938837 45.6253479,21.6636382 C43.6346836,22.1716473 42.848819,22.6673942 41.9820566,24.360174 C41.8150603,24.6877522 41.469511,27.5693902 41.4504423,28.6280344 C41.4342627,29.6878466 40.8893581,30.4416854 40.3941478,30.8153932 C39.9879251,31.1365484 39.5418314,31.2977099 39.0489325,31.2977099" id="Fill-5" fill="#766E66"/>
                        <path d="M66.5581844,27.3221534 C66.5581844,27.3221534 63.600397,33.4894953 62.6366691,26.8588496 L62.274692,21.9057617 C62.2376256,21.4879356 62.0685099,21.2781698 61.7685033,21.2781698 C61.2935893,21.2781698 60.3796695,21.9927378 59.0284813,23.4241478 C57.6772932,24.85101 56.7981232,25.5638726 56.3909713,25.5638726 C56.1778392,25.5638726 56.0747481,25.3597915 56.0747481,24.9419653 C56.0747481,24.596335 56.1135521,24.085848 56.1998474,23.4093675 C56.2849844,22.7385718 56.705457,21.3691251 56.705457,21.0388435 C56.705457,20.2463949 56.5027498,19.8473282 56.0973355,19.8473282 C55.567401,19.8473282 54.7832138,20.4266002 53.7424572,21.5845756 L51.7223353,24.2927715 C51.3725207,24.9175211 51.0186518,25.5331752 50.6659414,26.135186 C50.1018362,27.0720262 49.6599346,27.5393093 49.3431322,27.5393093 C49.1647499,27.5393093 49.0251715,27.4301629 48.9197638,27.213007 C48.8126186,26.9998304 48.7686021,26.7946123 48.7853979,26.60588 L49.0251715,22.3684971 C48.8317309,21.8165118 48.5149286,21.5385295 48.0730269,21.5385295 C47.7191581,21.5385295 47.3844017,21.8165118 47.0641243,22.3684971 C46.9054336,22.6658075 46.7924967,23.2189297 46.7212596,24.0329802 C46.7212596,24.1375789 46.705043,24.724241 46.6685557,25.7986511 L46.5828396,28.3954267 C46.5689396,28.9326318 46.5648855,29.3982095 46.5648855,29.7972762 C46.5648855,30.4208888 46.5828396,30.8375781 46.6175894,31.0422276 C46.705043,31.5618101 46.9262834,31.9028927 47.2784148,32.0580853 L47.4376847,32.0580853 C48.1413682,32.1109531 48.934822,31.4611908 49.8157295,30.1076613 C50.3259725,29.1929915 50.838532,28.2743423 51.3458792,27.3585356 C51.9296758,26.2670712 52.8221666,24.6452235 53.245535,23.8510695 C53.4372381,23.6100378 53.6503702,23.4849742 53.8779814,23.4849742 C53.9335811,23.4849742 53.9851267,23.4946382 54.0389888,23.5105554 C54.1976796,23.6663164 54.2752875,23.9647637 54.2752875,24.3939593 C54.2752875,24.4826408 53.8171693,26.4398864 53.6833825,28.9150092 C53.6642701,29.3140758 53.8507608,29.6079753 54.2376419,29.7989816 L54.4241325,29.8222889 C55.0577372,29.8609449 55.7017669,29.4368655 56.3550632,28.5506193 C56.8479312,27.7229255 57.3518034,26.8889785 57.8643629,26.0584424 C58.4099348,25.1585528 58.8773197,24.7088922 59.2642008,24.7088922 C59.5833198,24.7088922 59.7837104,25.0090449 59.8734807,25.6173089 L60.2956908,28.7348039 C60.3680862,29.2373322 60.7312216,29.7785166 61.4852924,30.1940689 C63.919516,31.5299758 65.7878971,30.5391308 66.911474,29.0423467 C67.0649523,28.8365602 67.1755725,28.6847784 67.1755725,28.5290174 L67.1755725,28.428398 L66.5581844,27.3221534 Z" id="Fill-7" fill="#766E66"/>
                        <path d="M72.6724715,16.3559141 C72.6724715,16.7669684 72.4980931,17.1101959 72.1563346,17.3972907 C71.8128265,17.6791231 71.4553215,17.8229629 71.0826531,17.8229629 C70.7980488,17.8229629 70.5216094,17.7416876 70.2562508,17.5803064 C69.9395702,17.3879353 69.7821047,17.1271526 69.7821047,16.8096526 C69.7821047,16.4178938 69.9605656,16.0629721 70.3075729,15.7437179 C70.6604123,15.4250485 71.0080028,15.2671756 71.3503445,15.2671756 C71.6775228,15.2671756 71.970292,15.3449426 72.2251529,15.5051544 C72.5237541,15.7179905 72.6724715,16.0015771 72.6724715,16.3559141 M72.6695555,30.7059788 C71.7585884,31.1573784 71.2220393,31.2977099 70.6125894,31.2977099 C69.669546,31.2977099 68.6985087,30.2189116 68.3695808,29.8604815 C67.8149523,29.222558 67.4656121,28.9003802 67.3157283,28.9003802 C67.1512643,28.9003802 66.9418935,29.0711169 66.6893655,29.4061583 C66.3598544,29.8540497 66.0501722,30.2516556 65.8122243,30.3685985 C65.4634674,30.5405046 65.7060809,29.2248968 66.2280499,27.6216095 C66.8701592,25.6353341 67.8849369,23.2175394 68.0820604,22.7842659 C68.6366889,21.6978663 69.1586579,21.1564206 69.652633,21.1564206 C69.9809778,21.1564206 70.1396097,21.4230505 70.1238632,21.9580643 L70.1238632,22.1451729 C70.1086998,22.3954308 69.8480069,22.9959326 69.7430299,24.1396343 C69.7430299,24.1396343 69.5622362,25.0973967 69.8386756,26.1323415 C70.0993685,27.1152467 70.8126289,28.1665635 71.1147294,28.5308406 C71.7364266,29.2851224 71.9242188,29.4003112 72.5949052,29.1892292 C73.0760498,29.0395423 73.39448,28.4682762 73.8359667,28.3220975 C74.2757037,28.1759189 74.5328973,28.1297264 74.727688,28.144929 C75.1487624,28.1747495 75.8917663,29.6593397 75.4222858,30.4182992 C75.4222858,30.4182992 74.6524545,29.7213195 72.6695555,30.7059788" id="Fill-9" fill="#766E66"/>
                        <path d="M84.7328244,29.2331664 C84.7328244,30.0914356 84.13276,30.8074503 82.9269809,31.3823958 C81.9308287,31.8382032 80.9222459,32.0610687 79.9063176,32.0610687 C78.9090354,32.0610687 77.7309429,31.7475159 76.3720399,31.1257449 C74.8198959,30.4192139 74.0458015,29.662301 74.0458015,28.8520426 C74.0458015,28.4643989 74.2537335,28.2687989 74.6673372,28.2687989 C75.1306637,28.2687989 76.1206005,28.686079 77.6377125,29.5259737 C79.1514343,30.3646829 80.2385567,30.7825557 80.8934292,30.7825557 C81.6149756,30.7825557 81.9794215,30.5187921 81.9794215,29.997192 C81.9794215,29.4074282 81.7019906,28.7880281 81.151084,28.1289152 C80.8759132,27.8100279 80.366254,27.3305115 79.6232364,26.6891804 C79.0033958,26.1658021 78.064312,25.383402 76.8054198,24.3413873 C76.2872851,23.902769 76.0279352,23.2975943 76.0279352,22.5228997 C76.0279352,21.7458341 76.4505794,21.1667394 77.2953029,20.7779102 C77.3625417,20.7453102 78.1196852,20.5277793 79.5650381,20.1223538 C80.2187805,19.9362374 80.837491,19.8473282 81.4251247,19.8473282 C82.9038145,19.8473282 83.6428769,20.2165974 83.6428769,20.9539503 C83.6428769,21.1572558 83.5643374,21.3427794 83.4123437,21.5105213 C83.2558297,21.6782631 83.0750194,21.7630231 82.8699126,21.7630231 C82.5077268,21.7630231 81.9664258,21.6261031 81.2437493,21.3475213 C80.523333,21.0695321 79.9905075,20.9326121 79.6464027,20.9326121 C79.0288223,20.9326121 78.7174894,21.308994 78.7174894,22.0664996 C78.7174894,22.7386524 79.0706347,23.3290089 79.7769252,23.8340126 C80.3781197,24.2210636 82.2048694,25.6388675 82.668196,26.1189767 C83.1349128,26.5979004 83.6072799,27.0637841 84.0875574,27.518406 C84.5186771,28.0240025 84.7328244,28.5983553 84.7328244,29.2331664" id="Fill-11" fill="#766E66"/>
                        <path d="M96.8992314,28.7267291 C96.9313505,28.7600811 96.9465649,28.8055088 96.9465649,28.8687627 C96.9465649,29.5110766 95.4442889,30.1349894 92.4403004,30.7301505 L89.733837,31.249407 C89.5783125,31.2816089 89.2407794,31.2977099 88.7161661,31.2977099 C87.6669396,31.2977099 86.881992,31.1487759 86.3585057,30.8486077 C85.6659711,30.457009 84.7328244,29.7094636 84.7328244,28.7342045 C84.7328244,28.0246115 84.779031,27.4938543 84.872571,27.1304323 C85.272652,25.5893389 86.6520862,22.3559178 89.1945728,21.1604204 C89.8589327,20.7527206 91.0062072,20.610687 91.4648917,20.610687 C92.0058463,20.610687 92.479745,20.7964233 92.8871514,21.1661707 C93.2956849,21.5387933 93.5019238,21.9976711 93.5019238,22.5456793 C93.5019238,22.8941505 93.3920424,23.3099007 93.178478,23.8004054 C92.9451914,24.3673898 92.684857,24.652032 92.3918399,24.652032 C91.6502813,24.569802 92.0965688,24.0424951 91.6356305,23.3881054 C91.1724381,22.7308406 90.4246811,22.4341226 89.9158456,22.4341226 C89.0824375,22.4341226 87.8506388,22.8556231 87.4364704,24.5111485 C87.0228655,26.1666739 87.1473978,25.7428732 87.1473978,26.6859303 C87.1473978,27.7405443 87.6173521,28.4564627 88.5600782,28.8336855 C89.1455488,29.0700249 89.7992023,29.385719 91.0484693,29.385719 C91.6790195,29.385719 92.5186261,29.302339 93.5684161,29.1292535 C93.6771706,29.1143026 94.1307835,29.0090712 94.9365805,28.8221848 C95.5040193,28.6801512 95.9508703,28.610572 96.2748796,28.610572 C96.5504283,28.610572 96.7617387,28.6485243 96.8992314,28.7267291" id="Fill-13" fill="#766E66"/>
                        <path d="M112.212515,29.824626 C112.240962,30.1937594 111.774191,30.5410438 110.811619,30.8768288 C110.009283,31.1562663 109.392727,31.2977099 108.961369,31.2977099 C108.160775,31.2977099 107.328249,31.0608205 106.468437,30.5887667 C105.45826,30.0258669 104.886987,29.333023 104.752297,28.5102349 L104.262303,25.5899408 C104.175219,25.0805136 104.01092,24.827525 103.774631,24.827525 C103.67013,24.827525 103.544148,24.8809976 103.394944,24.9867928 C102.550807,26.0182966 101.674739,27.0871737 100.770224,28.1882493 L98.7446444,30.3731514 C98.5489951,30.5784172 98.2540697,30.6859373 97.8517405,30.6859373 C97.6427382,30.6859373 97.3135598,30.5295444 96.8595605,30.2133085 C96.4078835,29.8970727 96.1832061,29.6596084 96.1832061,29.5026404 C96.1832061,29.466992 96.2708709,29.1841047 96.4496839,28.6603032 C96.5832131,28.1704251 97.0975908,26.8974322 97.2723399,26.1137423 C97.4459278,25.3289025 98.3109648,20.0144158 98.8299869,16.1804876 C99.1864518,13.5356062 99.9516322,12.2137405 101.124367,12.2137405 C101.317694,12.2137405 101.784465,12.3753082 101.903481,13.0808016 C102.105516,14.3842682 100.905495,19.3066225 100.655273,20.6169887 C100.143218,23.2986685 99.2770194,26.0924683 99.2770194,26.4811509 C99.2770194,27.0768241 99.4651214,27.3723609 99.8331976,27.3723609 C99.9551155,27.3723609 100.081678,27.3551117 100.252944,27.2452916 C100.427112,27.1343216 101.068633,26.1056927 101.836135,25.3536264 C103.960411,23.2745196 104.882923,22.4873799 105.846075,22.5931751 C106.03708,22.6138742 106.222279,22.6753965 106.391223,22.8306395 C106.560747,22.9881824 106.660603,23.1733241 106.690212,23.3837647 C106.690212,23.3837647 106.66757,26.2695603 107.180206,27.3792606 C107.694003,28.4883859 108.353521,28.8770684 109.138441,29.1927293 C109.570959,29.3686714 110.195063,29.4761916 111.011333,29.5095401 C111.663303,29.5428886 112.065633,29.6486838 112.212515,29.824626" id="Fill-15" fill="#766E66"/>
                        <path d="M28.6719838,50.0576833 C27.7744158,50.5198968 27.9348396,49.1449136 27.9348396,48.6069273 C27.9348396,47.6551055 28.2309623,46.6764719 28.7674331,45.8925157 C29.1578551,45.3265519 29.7207757,44.6836496 30.3768456,44.4370969 C30.9363162,44.2284305 31.7970846,44.2966259 32.0610075,44.9051391 C32.1857815,45.2356246 31.866084,45.7695308 31.7280851,46.0475584 C31.4492123,46.5966191 31.1208898,47.1194508 30.7776175,47.6300423 C30.4216952,48.156954 30.0456482,48.6687112 29.6362513,49.1542395 C29.3665784,49.4678219 29.0560809,49.879326 28.6719838,50.0576833 M45.8499754,43.3197408 C45.8436504,42.7292966 44.8920328,42.5742539 44.4682611,42.6453637 C43.7426167,42.7666001 43.1411714,43.2591227 42.556401,43.6682953 C42.3143278,43.836161 41.8480065,44.2604882 41.520259,44.2062815 C40.9090388,44.1042798 40.5226418,43.4438915 39.8711718,43.4386457 C39.3122762,43.4386457 38.4756577,43.8757959 38.3922833,44.4971322 C38.3566336,44.7722454 38.4474829,45.0502729 38.4549578,45.3253862 C38.4601328,45.6902609 38.4911825,46.0545528 38.5153324,46.4182618 C38.567657,47.1643315 38.4957825,47.8661034 38.434833,48.6069273 C38.4066582,48.9339157 38.3784834,49.2579898 38.3514586,49.5843953 C38.3342088,49.7732442 37.9311369,49.7545925 37.7741631,49.7854844 C37.0099941,49.9416928 36.2245502,50.1130557 35.471306,49.7895645 C34.4202142,49.3436712 34.3460398,47.7565244 34.2011409,46.7732278 C34.0171423,45.5078235 34.2126408,43.7219191 32.9873253,42.9449574 C31.9310585,42.2688316 30.4038704,42.5148015 29.4332779,43.2451339 C28.3045617,44.0955368 27.4575933,45.5311382 26.8860477,46.8111141 C26.6520245,47.3327801 26.4185763,47.8567775 26.208128,48.3866036 C25.9143053,49.0714723 25.9143053,49.8449368 25.9166052,50.5793493 C25.9171802,51.1645477 25.95168,51.8313476 26.3789017,52.2778237 C26.7744986,52.692825 27.4023937,52.7575232 27.9181647,52.5762516 C28.4500356,52.3926485 29.1066805,52.0674087 29.4591527,51.6051952 C29.9519239,50.9197436 30.4067454,50.1783368 30.9880658,49.5669093 C31.1571145,49.388552 31.5929611,48.8738804 31.8954088,49.0242601 C32.3922049,49.2743101 32.5704535,50.1917427 32.768252,50.6609506 C33.3162228,51.9636584 34.5041635,51.8890514 35.734079,51.9007087 C36.6954715,51.9088689 37.7149386,51.9951332 38.6602312,51.7829696 C39.7728476,51.5352511 40.6508658,51.1208327 40.7744898,49.8600914 C40.8256644,49.3273509 40.7951896,48.7899476 40.8273894,48.2554585 C40.8630391,47.6160535 41.0941873,46.8711494 41.4719594,46.3832898 C42.0486799,45.6395515 42.6518502,45.0840792 43.4361441,44.4569143 C44.0513893,43.7679655 45.7378512,44.2062815 45.8499754,43.3197408 M75.4001458,47.4511021 C75.1540477,47.1905605 75.2742217,46.3792097 75.4421204,46.0813647 C75.6514188,45.7141584 75.9797413,45.4099019 76.2879389,45.1318743 C76.6099364,44.839858 76.9532087,44.5717391 77.3114309,44.326935 C77.4638047,44.2237675 78.0215504,44.0197641 77.9318511,43.8414068 C78.3406729,44.3193577 77.7001279,45.4571141 77.4373549,45.9910203 C77.2131067,46.4491537 76.8951341,46.7778907 76.4673375,47.0524211 C76.3281886,47.1392682 75.5657445,47.6212993 75.4001458,47.4511021 M55.4322759,44.7349419 C55.9118222,44.0681421 57.1457626,43.3517985 57.9122316,43.7096788 C58.3952279,43.9340826 58.4090278,45.2705967 57.5873592,45.5824305 C56.7904154,45.882607 56.2872943,46.0120035 55.4380259,46.0586328 C55.2235525,46.0702902 54.7043316,46.1250797 54.7859809,45.7695308 C54.8745302,45.3900844 55.2126276,45.0380327 55.4322759,44.7349419 M96.8785289,43.3459698 C96.8727789,42.7566913 95.9228863,42.604563 95.4991146,42.6739242 C94.7740452,42.7957434 94.1725999,43.2894317 93.5849545,43.6974386 C93.3440313,43.8658872 92.875985,44.291963 92.5505375,44.2395049 C91.9387423,44.1334232 91.5534953,43.4736177 90.9008753,43.4672062 C90.6427023,43.4672062 89.906708,43.8484012 89.6864848,43.9329169 C89.4668365,44.0174326 89.4231368,44.5245269 89.4231368,44.5245269 C89.4231368,44.5245269 89.4766114,45.0782506 89.4817863,45.3533638 C89.4892613,45.7211528 89.520886,46.0848619 89.5473358,46.4491537 C89.6002354,47.210378 89.523761,47.9366303 89.4582115,48.6966889 C89.4346367,48.9624762 89.4127869,49.230595 89.3892121,49.4987138 C89.3823121,49.5669093 88.6612677,49.6706596 88.5623685,49.6852313 C88.234621,49.7283634 87.8988236,49.6840655 87.5877511,49.5669093 C86.9615809,49.3302653 86.3917604,48.8126794 86.055963,48.2298124 C85.7650152,47.7256324 85.8069899,47.3082997 85.8506896,46.7627362 C85.926589,45.8010056 86.1226625,44.8550125 86.2991861,43.9049393 C86.3561106,43.5989341 86.4314351,43.2725286 86.3474857,42.9618605 C86.1537122,42.2239509 85.2699441,42.6500267 84.9186218,42.9834266 C84.2182772,43.6490607 83.9112296,44.5647447 83.5581824,45.4431253 C83.3925837,45.8581266 83.2292849,46.2801223 83.0332115,46.6811348 C82.7589386,47.2424357 82.3127421,47.7454499 81.9539448,48.2554585 C81.3312247,49.1501594 80.7453042,50.0506889 79.5383886,49.9183781 C78.5056966,49.804719 77.5822538,49.129759 76.8278597,48.4559648 C77.1389323,48.069524 77.6242285,47.7914964 77.9859007,47.4499364 C78.4717719,46.9993802 78.9191184,46.505109 79.3302402,45.9869402 C79.8103615,45.3772613 80.134084,44.9033905 80.137534,44.1042798 C80.137534,43.4030908 80.129484,42.7001532 79.6884624,42.1202006 C79.3750899,41.7069479 78.8846187,41.3362444 78.3481479,41.4802126 C77.682303,41.6568213 77.0670578,42.3224554 76.5823366,42.7939948 C76.3086387,43.0638622 76.0671406,43.3517985 75.8342674,43.6560551 C75.6571688,43.888619 75.4093457,44.3887189 75.1442728,44.5134524 C74.6952012,44.7238674 75.0430735,43.5173327 75.0189237,43.4194111 C75.1925724,42.7805889 75.2834217,42.0292733 75.3621961,41.3683021 C75.4386705,40.7125768 75.5162949,40.0609315 75.5939193,39.4052061 C75.6922435,38.5769521 75.7899927,37.7510296 75.887167,36.9204441 C75.9417916,36.4570648 76.1574149,35.588593 75.5519446,35.3671035 C75.1787725,35.2318784 74.6227518,35.5180661 74.3749287,35.7821048 C74.0632812,36.1108418 73.9114823,36.5625638 73.8493828,37.0037941 C73.7165588,37.9579473 73.6211096,38.9150149 73.5279603,39.8726654 C73.439986,40.7976753 73.4497609,41.7465828 73.315212,42.6628497 C73.1559382,43.7638855 73.0133393,44.8707499 72.8799403,45.9758657 C72.7580413,47.0104546 72.6993917,48.0397978 72.4981433,49.0592321 C72.410169,49.4987138 72.4780185,49.6216988 72.0410219,49.7283634 C71.7345492,49.8018047 71.4223267,49.905555 71.1089541,49.9416928 C70.7599318,49.9819106 70.3603099,49.9597616 70.0331375,49.8280337 C68.9026962,49.3699002 68.2748011,47.92031 68.1948767,46.776725 C68.1465771,46.0941877 68.167277,45.4058218 68.158652,44.7227017 C68.1546271,44.1952071 68.3783003,42.8143951 67.515807,42.8120637 C67.006936,42.8382927 66.5331397,43.3570443 66.1910173,43.6886956 C65.8258952,44.0471588 65.4739979,44.4207766 65.1175007,44.7903143 C64.8708276,45.0391985 63.2947648,47.127028 63.1239911,46.9008756 C62.7893437,46.4625597 62.882493,45.5352183 62.8341934,45.0158838 C62.7887688,44.5379328 62.7939437,43.5394817 62.1758235,43.4013422 C60.9073834,43.1233147 60.5439862,45.5427955 60.6193106,46.3506492 C60.6716352,46.9410935 60.7314347,47.6160535 60.8843836,48.1114904 C61.0373324,48.6098417 61.0028326,48.8832063 61.0177825,49.0452433 C61.0413573,49.3028705 60.6681852,49.3063677 60.4548619,49.3512485 C59.1214472,49.6292761 57.5948341,50.1474448 56.2654444,49.7819872 C55.7375985,49.6368533 55.0987785,49.3757289 54.8636053,48.8348283 C54.6226822,48.2816876 54.8814302,47.9144814 55.4098511,47.7256324 C56.2895943,47.4126329 57.2147621,47.1905605 57.9846811,46.6467456 C58.6919256,46.1483944 59.5302691,45.6004994 60.0098153,44.8596754 C60.5422612,44.037833 60.1765641,43.1233147 59.4204449,42.5981515 C57.4999598,41.2645518 55.4777006,43.1408007 54.2874598,44.5729049 C53.6779645,45.3102316 53.1886433,46.1198339 52.9097705,47.0425123 C52.6268727,47.9750995 52.3238501,49.362323 52.7677466,50.2774242 C51.5447311,50.7373062 49.4603723,50.3566941 48.5007048,49.4351813 C48.1085578,49.0592321 48.0487583,48.5585494 48.083833,48.0310548 C48.1269577,47.3904839 48.2459818,46.5785502 48.5432544,46.0090891 C48.9003267,45.3323806 49.9767183,45.418062 50.6207133,45.3586096 C50.9283359,45.3288834 51.2353835,45.2979914 51.5447311,45.2688481 C52.1870011,45.2093956 52.0150775,44.5909737 51.5200063,44.4446741 C50.8696864,44.2575738 50.1589919,44.2733112 49.4902721,44.2301791 C49.0182008,44.1800525 48.9745011,43.7638855 49.0233757,43.3681188 C49.1653996,42.188396 49.2821237,40.9737012 49.5517966,39.8213731 C49.7771949,38.8567282 50.1837167,37.9486215 50.3401155,36.9624105 C50.4344147,36.3742977 49.8950689,36.1306593 49.4040228,36.2583072 C48.8365022,36.4063554 48.1976821,36.8569116 48.0119586,37.4409443 C47.6341865,38.616587 47.4340881,39.8726654 47.1563652,41.0803658 C46.9827166,41.8316814 46.791818,42.5643452 46.5623948,43.3034206 C46.3542464,43.963226 46.2035976,44.4621601 45.5952523,44.756508 C44.9874821,45.0520215 44.2463128,44.3572441 44.097964,45.3533638 C44.0847391,45.6517917 44.9696572,45.8033371 45.2381801,45.8995102 C45.508428,45.9945175 45.774076,46.1297426 45.6993265,46.5231778 C45.5705275,47.1905605 45.4187287,47.8334628 45.3669791,48.5154172 C45.3158045,49.2107775 45.25083,50.0023109 45.7062265,50.5845951 C46.1190733,51.1144212 46.8918673,51.3440708 47.5272373,51.4064375 C48.4161804,51.4897875 49.3120235,51.6209326 50.2055665,51.6535731 C50.7190375,51.6774707 51.3319828,51.7258486 51.8299289,51.5544857 C52.1841262,51.4326665 52.5388984,51.3149274 52.8907957,51.1948568 C53.0696193,51.1354044 53.2495929,51.0759519 53.4284165,51.0135852 C53.5750403,51.1103411 53.7233892,51.1901939 53.8872629,51.2560578 C54.9556046,51.6996196 56.2182948,51.6902937 57.348161,51.5492399 C57.9289065,51.4757987 58.503902,51.3732141 59.0754476,51.2583893 C59.4313698,51.1837823 59.4296449,51.1931082 60.1351644,51.0304883 C60.8435589,50.8684513 61.1241567,50.3829231 61.216731,50.5210626 C61.4881289,50.9197436 61.8285262,51.5684745 62.2988726,51.4023575 C62.6369699,51.2822869 62.8134936,50.8661198 62.9773673,50.5741035 C63.3074147,49.9807449 63.4896883,49.2982076 63.788111,48.6827001 C64.2366075,47.7576901 64.819078,46.6030306 65.587847,45.9076703 C65.9673441,45.5620302 66.0645183,46.5645614 66.1162679,46.8239372 C66.3497161,47.9482876 66.4779401,49.2626527 67.0862854,50.2552752 C68.167277,52.0161164 70.5466085,52.0621629 72.2071956,51.2140914 C72.2347954,51.9088689 72.6447672,52.1787363 73.1082136,51.6086924 C73.3957113,51.2613036 73.6291595,50.8527139 73.8028082,50.4353811 C73.9695569,50.0425288 74.0730561,49.5371831 74.3231791,49.1892115 C74.6957762,49.305202 75.109773,49.8367767 75.4191206,50.0699235 C76.0866904,50.5706062 76.8140598,51.005425 77.5926037,51.3096816 C78.2440737,51.5614801 79.1790164,51.8575766 79.8902859,51.7270144 C80.6096053,51.6967053 81.0684517,51.3889515 81.5376481,50.8725314 C81.938995,50.431301 82.2500675,49.9148809 83.2430848,49.0359175 C84.2366771,48.1581198 84.5678745,50.2476979 84.8231725,50.4837591 C86.0967877,51.6634819 87.851674,51.1901939 89.2966378,50.6428818 C89.3012378,51.0264082 89.5703357,51.1435645 89.7480093,51.4245064 C89.909008,51.6798021 90.1384312,51.6512417 90.4121291,51.5958693 C91.0043745,51.483376 91.4908207,51.0846949 91.6817193,50.5047423 C92.0428165,49.3908835 91.2510476,49.2469153 92.2486649,47.1194508 C93.5027301,44.532687 95.2231167,44.2121102 95.6129637,44.1042798 C95.9901608,44.0040267 96.8147044,43.8484012 96.8785289,43.3459698 M86.7913823,40.5960034 C87.4992018,40.4065716 88.0402726,39.8254532 88.1811465,39.0910408 C88.3076455,38.4219095 87.8332742,37.8407911 87.1490295,37.9736848 C86.4026853,38.1502935 85.8897893,38.7768755 85.7713402,39.5293568 C85.667266,40.1990709 86.0916127,40.777275 86.7913823,40.5960034 M118.696734,45.0310383 C119.127406,44.3904675 119.9186,44.0500732 120.644244,44.3654042 C121.017991,44.5274412 121.82586,45.352198 121.166915,45.7077469 C120.49417,46.0714559 119.631102,46.1705433 118.886483,46.2562248 C118.682934,46.2824538 118.048139,46.3931985 118.122889,46.018415 C118.192463,45.6628662 118.500661,45.3242204 118.696734,45.0310383 M140.326341,48.6249962 C140.363716,48.5999329 140.399941,48.5737039 140.43674,48.5486406 C140.082543,48.029889 139.317799,48.4833595 138.894027,48.6284934 C138.294307,48.8348283 137.715287,49.042329 137.130516,49.2982076 C136.238698,49.6887285 135.213481,50.3939975 134.201489,50.208063 C133.137172,50.0093053 132.341953,48.7019347 132.141855,47.7157237 C131.991781,46.9743169 132.034906,46.1856978 132.026856,45.4332166 C132.023981,45.0333698 132.021106,44.6346888 132.018231,44.2336763 C132.013056,43.9836263 132.063655,43.6531408 131.910707,43.43748 C131.153438,42.3708334 129.681449,44.3776444 129.172578,44.8882359 C128.91268,45.1499432 128.665432,45.418062 128.433709,45.7042497 C128.045587,46.1886122 127.68219,46.846669 127.156644,47.192892 C126.817396,47.4213759 126.777147,46.1571374 126.764497,46.0195808 C126.703547,45.3836729 126.796696,44.3403409 126.306225,43.8414068 C125.931328,43.4625432 125.386807,43.8093491 125.128059,44.1491606 C124.702563,44.7104615 124.46164,45.5054921 124.46164,46.2066811 C124.46164,46.8565778 124.609413,47.4971486 124.710038,48.1353879 C124.738787,48.318991 124.764087,48.503177 124.782487,48.6867801 C124.800312,48.8680518 124.817562,49.0493234 124.835962,49.2294293 C124.857236,49.4433415 124.983161,49.699803 124.741087,49.7365236 C123.394448,49.9457728 122.115658,50.2488637 120.735094,50.2488637 C119.85075,50.2488637 117.582968,49.9510186 117.841141,48.5585494 C117.947515,47.9914198 119.259655,47.7390384 119.702402,47.5816643 C120.554545,47.2785735 121.397488,47.2249497 122.108758,46.6280939 C123.025876,45.8569609 124.195417,44.756508 123.075325,43.564545 C122.050683,42.468755 120.254397,42.3212897 119.129131,43.1297262 C118.048139,43.9049393 117.051672,45.0432785 116.421477,46.2206699 C115.846481,47.3327801 115.350835,49.0767181 115.731482,50.3199734 C115.181787,50.2710126 114.619441,50.2500294 114.116895,49.9883221 C113.5143,49.6747397 113.078453,49.1227646 112.76278,48.525326 C112.600057,47.9995799 112.631681,47.3217056 112.570157,46.7732278 C112.506907,46.1967723 112.491383,45.5900078 112.379833,45.0182153 C112.22516,43.7236677 110.824471,44.252328 110.2075,44.7600052 C109.171358,45.6133225 108.189266,46.6962893 107.427397,47.8002394 C107.283073,48.0112373 106.762127,48.8336626 106.570079,48.2082463 C106.410805,47.6947405 106.604578,47.1171193 106.792602,46.6397512 C107.02605,46.0353182 107.367597,45.4815945 107.595296,44.8742471 C107.866119,44.151492 108.032292,43.3955135 108.206516,42.6453637 C108.460664,41.5635626 108.594063,40.5091562 108.594063,39.3941316 L108.594063,37.4007265 C108.594063,36.8545801 108.753912,35.9453076 108.464689,35.4452077 C107.848294,34.3698181 106.770177,35.5069916 106.473479,36.1831173 C105.888134,37.5190485 105.845009,39.0776348 105.662161,40.5033275 C105.466087,42.0514222 105.257364,43.5989341 105.024491,45.1412002 C104.927891,45.7945941 104.825542,46.4491537 104.719168,47.0984676 C104.600144,47.8165597 104.308621,48.5276574 104.125773,49.2358408 C104.075748,49.4217754 104.115423,49.4713191 103.918199,49.5086226 C103.7618,49.5389317 103.601377,49.5721551 103.443828,49.6082928 C103.154605,49.6764883 102.865382,49.7411865 102.57501,49.804719 C101.993689,49.9323669 101.396269,50.0023109 100.802298,50.0518546 C99.7172818,50.1410333 98.2148185,50.2138916 97.2758508,49.5371831 C96.1718594,48.7439011 96.6571556,47.0273578 97.120602,46.000929 C97.5167739,45.1237142 98.4839164,43.5272415 99.6511573,44.291963 C100.193953,44.646929 100.423951,45.3411236 100.979972,45.6716092 C101.586592,46.0312381 101.963214,45.2420362 102.147788,44.7885657 C102.696909,43.4398114 101.879265,42.0135359 100.358977,42.0928058 C98.8450136,42.1703271 97.764022,43.0836797 96.8135544,44.1899613 C96.1511595,44.9564314 95.5865139,45.6453801 95.2633664,46.6205166 C94.8804194,47.7530272 94.2145746,49.454416 94.8976693,50.5933381 C95.6100887,51.7829696 97.0130778,51.9735671 98.2625431,51.9624926 C98.9784126,51.956664 99.6649572,51.7952098 100.364152,51.6623161 C101.26977,51.492119 102.175388,51.3318305 103.067206,51.0969351 C103.336879,51.0246596 103.605977,50.9471383 103.8722,50.8585425 C104.077473,50.7891814 104.360946,51.1616334 104.539194,51.2921956 C105.001491,51.6261784 105.633411,51.8091986 106.065232,51.2921956 C106.496479,50.7740268 106.927151,50.2529437 107.360697,49.7353578 C108.121992,48.8173423 108.793586,47.8264684 109.496806,46.868818 C109.883203,46.3448205 110.103426,46.3850384 110.19945,47.0285235 C110.24545,47.3298658 110.289725,47.631208 110.333424,47.9342988 C110.436349,48.6051787 110.462798,49.3634887 110.685322,50.0093053 C111.133243,51.3096816 112.744956,52.1653303 114.046745,52.1653303 C114.497542,52.1641646 114.948338,52.0085391 115.363485,51.8546622 C115.587734,51.7730609 115.805082,51.6844651 116.014955,51.5766347 C116.253003,51.4559812 116.374327,51.2484806 116.609501,51.3802085 C117.448994,51.8616566 118.517336,51.9339322 119.460903,51.917029 C120.198048,51.9007087 120.934617,51.7777238 121.658536,51.6430815 C122.748153,51.4408267 123.971743,51.2910299 124.977411,50.8043359 C125.027435,51.4151805 125.551256,51.9100346 126.163051,51.6932081 C126.554048,51.5568172 126.840396,50.9471383 126.980695,50.5869265 C127.456791,49.3564943 128.012237,48.2210694 128.747081,47.1241137 C128.835631,46.9906372 129.473876,45.9228248 129.680299,46.1332398 C129.878672,46.3349118 129.905122,46.7557418 129.963197,47.0285235 C130.100046,47.6871632 130.21677,48.3539631 130.378344,49.0050255 C130.691716,50.2774242 131.234512,51.1948568 132.442003,51.7829696 C133.355095,52.2241999 134.433787,52.0843118 135.356655,51.7206028 C136.908568,51.1103411 138.451856,50.3969119 139.81747,49.4270212 C140.082543,49.2375894 140.451115,48.9846252 140.458015,48.6162532 C140.416041,48.6197504 140.371191,48.6209162 140.326341,48.6249962" id="Fill-17" fill="#766E66"/>
                        <path d="M199.174511,24.6595188 C198.962474,18.1820724 198.749857,12.1580067 198.578485,7.75489299 C198.494833,5.55275783 198.422799,3.75600522 198.363545,2.50805152 C198.336822,1.88523126 198.314166,1.39830956 198.294996,1.06983982 C198.285701,0.901556911 198.27873,0.775489299 198.271759,0.687588946 C198.269435,0.662722399 198.267112,0.638434144 198.265369,0.62108539 C198.277568,0.596797134 198.28512,0.564991085 198.285701,0.529136994 C198.280473,0.407695717 198.202048,0.359119206 198.160803,0.333674367 C197.99524,0.245774014 197.736149,0.213967965 197.303363,0.169439496 C196.029402,0.0508896781 193.410609,0 190.065083,0 C183.872461,0 175.192915,0.17695729 168.062686,0.431983972 C164.496991,0.559786459 161.319351,0.707829159 159.028778,0.864546236 C157.883782,0.940302462 156.962441,1.02126331 156.319361,1.10395904 C155.999854,1.14328288 155.752382,1.18491989 155.572877,1.2265569 C155.482834,1.24911028 155.4108,1.27050708 155.34806,1.29942167 C155.298101,1.32949284 155.207477,1.3537811 155.184241,1.50702842 C155.117435,1.56948394 155.066895,1.65275796 155.016935,1.7412366 C154.678839,2.40164583 154.392445,4.06307816 154.110698,6.51445709 C153.281142,13.8414142 152.672337,28.0205507 152.671756,40.5567603 C152.671756,46.9752209 152.832671,52.956493 153.203299,57.3671245 C153.390936,59.5767775 153.630276,61.3885657 153.930031,62.6764215 C154.082814,63.3229517 154.248957,63.8341617 154.437757,64.2060033 C154.62888,64.5726403 154.846144,64.8288236 155.157518,64.8756652 L155.212125,64.8854962 L155.260341,64.8594731 C155.346318,64.8114748 155.732049,64.7426581 156.2938,64.6963948 C157.999386,64.5500869 161.475038,64.5015104 165.743648,64.5015104 C173.635465,64.5015104 184.241346,64.6657453 191.479626,64.6657453 C193.810283,64.6657453 195.790644,64.64724 197.220872,64.6032898 C197.937729,64.5824713 198.512841,64.5512435 198.931686,64.5148111 C199.140817,64.4951492 199.308123,64.474909 199.43883,64.4506208 C199.573023,64.4199713 199.65319,64.409562 199.753108,64.3297578 L199.633439,64.2007987 L199.753108,64.3297578 C199.828047,64.247062 199.82979,64.1979072 199.849541,64.1198378 C199.958755,63.6253984 199.997676,62.0663237 200,59.6716173 C200,52.3909236 199.592774,37.6144116 199.174511,24.6595188" id="Fill-19" fill="#DDDDD5"/>
                        <path d="M191.615679,29.9524151 C191.528958,29.8433537 191.257954,29.218992 190.803237,28.0735596 C190.436954,27.1485579 190.056978,26.6892308 189.669584,26.6892308 C189.214868,26.6892308 188.533079,27.2703142 187.622505,28.433058 C187.125569,29.1358977 186.61494,29.847393 186.099747,30.5756227 C185.87838,30.8618365 185.448196,31.1769026 184.797787,31.5265913 C184.149659,31.8814734 183.640742,32.060357 183.273888,32.060357 C181.931419,32.060357 181.261041,31.1792108 181.261041,29.4261509 C181.261041,28.4624873 181.217109,27.1133582 181.674108,26.062561 C181.9531,25.3643376 182.398117,24.3447008 183.005166,23.0082667 C183.567713,21.8680276 184.431503,20.6377696 185.598247,19.3146076 C186.771838,17.9908685 188.217573,17.6694549 189.409991,17.6694549 C190.360502,17.6694549 191.172373,17.985098 191.842752,18.6158072 C192.537093,19.3117224 192.737351,20.7831848 192.845752,22.3267776 C192.996944,24.0867621 193.424845,26.0435185 193.653059,26.7509745 C194.145431,28.2824495 195.588314,28.4901854 196.504022,28.498841 C196.113776,15.3174233 195.555793,3.17930125 195.219178,2.91328393 C195.692722,2.55090026 190.274351,2.33912508 183.327518,2.29007634 C183.859827,2.45626503 184.355622,2.6732336 184.82232,2.94444431 C186.165359,3.81751199 187.086202,5.16606399 187.086202,6.67157197 C187.086202,6.67157197 187.644185,9.82627191 184.944985,12.4079671 C183.914599,13.3924043 182.954959,14.1893021 182.954959,14.1893021 C182.954959,14.1893021 179.576251,17.2199376 179.473555,15.9717913 C179.432476,15.4622614 180.957516,14.173722 182.331364,12.0386589 C183.120985,10.8084009 183.277882,9.2094118 183.277882,7.79103747 C183.277882,6.64791317 182.164768,5.6571285 181.203417,4.78867717 C180.238642,3.92253402 179.144356,3.48744279 177.930828,3.48744279 C174.617161,3.48744279 171.348567,5.91275902 168.116486,10.7662767 C164.76117,15.8569595 162.59542,20.5812193 162.59542,23.8565215 C162.59542,25.2021883 163.037014,26.4411019 163.919631,27.5778787 C164.880983,28.8456445 166.543522,28.9420109 167.925357,28.9420109 C169.057869,28.9420109 170.441987,27.9812325 172.074287,26.0671773 C173.712864,24.1490828 175.118662,23.1934978 176.29054,23.1934978 C176.753244,23.1934978 177.148625,23.4029648 177.48524,23.8155513 C177.820715,24.2327542 177.968484,24.6522653 177.927405,25.0885106 C177.671235,26.4757245 177.369422,28.5063426 177.029954,31.1919057 C177.01569,31.679508 176.926687,32.2317391 176.81258,32.8572549 C177.120098,32.9080348 177.440168,32.9674703 177.779636,33.0401779 C179.757681,33.4637282 180.431483,33.9651795 181.930278,34.6322425 C183.87352,35.4874218 184.59867,36.1389045 185.083625,36.5341797 C186.125992,37.3443496 186.794659,39.2122413 187.101036,40.687743 L187.120434,40.7846864 L187.102177,40.8048829 C187.084491,41.368655 186.916753,44.7841788 184.503961,46.789407 C183.026846,48.0127404 180.495383,49.6544308 177.290118,49.6544308 L177.274713,49.6544308 C176.66367,49.6544308 176.029235,49.5932641 175.376543,49.461121 C174.463687,49.2683883 174.059749,49.1904874 173.89087,49.1045078 C173.881742,49.0958521 173.860632,49.0895047 173.83724,49.0687311 C173.168003,51.2453413 172.414326,53.2626874 171.641822,54.8616765 C170.722119,56.8040069 168.476494,58.7901925 164.905516,60.8462006 C163.981249,61.3799663 163.313723,61.7919758 162.706674,62.095501 C174.141906,62.396141 195.567204,63.2340089 196.567922,61.7013799 C196.686023,61.519034 196.774456,60.7504113 196.833792,59.5207303 C196.680888,59.5247697 196.524562,59.528809 196.358536,59.528809 C196.136598,59.528809 194.982976,59.5207303 192.899383,59.4964945 C192.016195,59.4964945 191.335546,59.2027791 190.854585,58.6113089 C190.77357,58.5114803 190.523105,57.9309739 190.10205,56.8686358 C189.761441,56.0157647 189.408279,55.5870209 189.049984,55.5870209 C188.628929,55.5870209 187.995064,56.1277112 187.155237,57.2027443 C186.693674,57.8548041 186.222412,58.5155196 185.74031,59.1877759 C185.539482,59.450908 185.139537,59.7463546 184.537052,60.0700763 C183.936279,60.3955292 183.466158,60.5622949 183.125549,60.5622949 C181.881783,60.5622949 181.261041,59.7463546 181.261041,58.1242837 C181.261041,57.2298654 181.219962,55.980565 181.643299,55.0093998 C181.902892,54.3590711 182.313678,53.4156041 182.876225,52.1795757 C183.395412,51.1212768 184.197584,49.9845 185.28103,48.7565502 C186.365046,47.5291775 187.705233,47.2314227 188.809788,47.2314227 C189.687842,47.2314227 190.442089,47.5257152 191.063401,48.1096838 C191.706394,48.7553961 191.891247,50.1137579 191.992232,51.5471354 C192.132013,53.1772849 192.529106,54.9897803 192.739633,55.6470335 C193.338695,57.5062695 195.452526,57.2552553 195.992823,57.2552553 L196.911384,57.0706012 C197.02378,51.2995835 196.854901,41.0097336 196.574769,30.9356982 C195.94718,30.93339 195.030901,30.9230032 193.821938,30.907423 C192.871997,30.907423 192.136007,30.5923569 191.615679,29.9524151 M187.999629,19.9453168 C186.960685,19.9453168 185.318115,21.6141282 184.668846,22.9292117 C184.106298,24.0232872 183.824454,25.1473691 183.824454,26.3101129 C183.824454,27.8415878 183.754849,29.3436336 185.186891,28.6061712 C186.623498,27.8681319 190.726215,21.9701644 190.238978,20.8230008 C189.752883,19.6764142 188.648327,19.9453168 187.999629,19.9453168 M189.578869,50.154728 C190.02788,51.2182202 186.228688,56.6822506 184.899342,57.3648937 C183.571137,58.0486909 183.634466,56.6574377 183.634466,55.2402174 C183.634466,54.161722 183.897483,53.1184264 184.418381,52.105714 C185.019154,50.887574 186.5402,49.3393647 187.503263,49.3393647 C188.104607,49.3393647 189.127576,49.0946981 189.578869,50.154728" id="Fill-21" fill="#766E66"/>
                        <path d="M170.702066,35.4113972 C170.549223,35.4016012 170.399285,35.3992963 170.251673,35.3992963 C169.766992,35.3992963 169.309625,35.4327178 168.881316,35.5099331 C168.300163,35.5998255 166.741513,36.2169715 164.300673,37.3406267 C161.72675,38.5605128 160.539456,40.0552623 160.272707,40.4972334 C159.906,41.1120744 158.953492,42.2956579 158.645481,42.8932119 C158.091062,43.7448849 157.573255,44.2485129 157.004307,44.3482013 C156.981642,44.3516587 156.958977,44.3545399 156.934569,44.3545399 C156.535317,44.3297618 156.257526,43.9707684 155.984966,43.584692 C155.91639,43.4826987 155.851301,43.3743668 155.793767,43.2700686 C155.765871,46.2561102 155.741463,49.0733154 155.725191,51.5730159 C155.725191,51.5730159 155.904767,58.4250076 155.933824,59.5100551 C155.987872,59.55673 156.043081,59.6034049 156.100034,59.6535372 C157.716218,61.1212037 158.848303,61.0866297 159.940869,61.0618517 C161.835426,61.0186342 164.759203,58.6030637 165.811669,57.3457224 C167.566168,55.2476565 168.69709,53.6872164 169.475834,51.9556349 C171.056568,48.4452209 172.11659,42.5607252 172.367067,39.7602308 C172.61057,37.2755123 172.716339,36.2630702 172.787821,35.4863075 L170.702066,35.4113972 Z M160.093712,37.6224048 C160.943357,37.0767118 162.213175,36.3448953 163.919438,35.4177357 C165.335706,34.8063521 167.044293,33.9587127 169.072515,33.4032237 C169.348562,33.3334995 170.647437,33.1070397 173.023188,32.7100149 C173.03946,32.5158242 173.05457,32.3083802 173.076654,32.0773106 C173.202183,30.5387674 171.287867,30.4396552 169.881479,30.4396552 C169.20153,30.4396552 169.123075,30.5341575 167.695765,30.8585769 C166.266712,31.1760815 165.189836,31.3385793 164.463977,31.3385793 C162.759458,31.3385793 161.435012,30.7058751 160.498775,29.4416189 C159.690393,28.3375557 159.283586,26.9563242 159.283586,25.2985006 C159.283586,22.583865 159.269057,19.6698526 161.194415,16.4331494 C162.177143,14.6986868 163.014002,12.9452085 165.192742,9.74884174 C168.600038,5.68870106 172.535601,3.20916864 176.99362,2.29007634 C166.565424,2.36441045 155.822824,2.75048684 156.193018,3.48057458 C156.243579,3.00518201 155.975086,24.1477625 155.811783,41.1558682 C156.508584,40.0690919 158.078276,38.8002259 160.093712,37.6224048 Z M174.490016,48.6394116 C174.448173,48.6434452 174.416791,48.65036 174.383084,48.6584273 C175.584326,44.7532934 176.503127,40.3681571 176.744306,36.8934695 C176.766389,36.4653281 176.803002,36.0648459 176.844845,35.6816506 C177.710762,35.825709 179.038113,36.1800926 180.047575,36.6468416 C181.098879,37.1642992 182.025236,37.6950102 182.817347,38.2516517 C183.798332,38.946013 184.387039,39.8201591 184.614851,40.9144263 C184.692725,41.2889781 184.732824,41.6681397 184.732824,42.0426914 C184.732824,43.2170551 184.349845,44.3631834 183.567033,45.495482 C182.533744,46.9781306 181.12445,47.7583507 179.35891,48.1599854 C178.139652,48.4365774 176.896567,48.5356896 175.961493,48.581212 C175.493085,48.6019564 175.103132,48.6117524 174.824179,48.6192434 C174.68354,48.6244295 174.573702,48.6301919 174.490016,48.6394116 Z" id="Fill-23" fill="#669933"/>
                    </g>
                </g>
            </g>
        </g>
    </g>
</svg>
