<?xml version="1.0" encoding="utf-8"?>
<!-- Generator: Adobe Illustrator 23.1.1, SVG Export Plug-In . SVG Version: 6.00 Build 0)  -->
<svg version="1.1" id="Ebene_1" xmlns="http://www.w3.org/2000/svg" xmlns:xlink="http://www.w3.org/1999/xlink" x="0px" y="0px"
	 viewBox="0 0 172 121" style="enable-background:new 0 0 172 121;" xml:space="preserve">
<style type="text/css">
	.st0{fill:#FFFFFF;}
	.st1{fill:#E10019;}
</style>
<g>
	<g>
		<path d="M9.7,91.6v-3.4L18,74.7c0.5-0.8,1-1.5,1.5-2.2c-0.8,0-1.9,0.1-4.2,0.1H9.9v-4h14.9v3.6L16.1,86c-0.3,0.5-0.6,1.1-1.1,1.6
			c0.6-0.1,2.2-0.1,5-0.1h5v4.1H9.7z"/>
		<path d="M40.9,91.6c0-0.8,0-2.1,0.2-3l-0.1,0c-1,2-3,3.4-5.7,3.4c-3.9,0-5.1-2.5-5.1-5.4V78c-0.8-0.1-1.9-0.3-2.9-0.3v-2.7
			c2.3-0.3,5-0.4,7.3-0.3v10.9c0,1.8,0.5,2.8,2.1,2.8c2.2,0,4-2.5,4-5.5v-8.2H45v13.6c0.8,0.1,2,0.3,3,0.3v2.7
			C45.8,91.6,43.2,91.7,40.9,91.6z"/>
		<path d="M56.3,100.1c-1.9,0-3.7-0.3-5.2-0.6l0.3-4.1c1.5,0.6,3.5,1,5.1,1c3.2,0,4.9-1.1,4.9-4.2v-0.9c0-0.8,0-1.6,0.2-2.5h-0.1
			c-0.9,1.9-2.8,3.1-5,3.1c-4.1,0-6.3-2.8-6.3-7.9c0-5.7,3.3-9.7,9.3-9.7c2.4,0,4.4,0.2,6.2,0.5v17.3
			C65.7,96.1,63.8,100.1,56.3,100.1z M61.3,78c-0.7-0.2-1.4-0.2-2.3-0.2c-2.5,0-4.3,1.5-4.3,5.7c0,3.2,0.9,4.8,2.9,4.8
			c2.3,0,3.7-2.6,3.7-5.6V78z"/>
		<path d="M73.9,92c-1.2,0-2.5-0.1-3.6-0.3l0.1-3.6c1.1,0.3,2.4,0.5,3.7,0.5c1.7,0,2.8-0.7,2.8-1.8c0-3-6.9-1.3-6.9-7.1
			c0-3,2.4-5.4,7.2-5.4c1,0,2.1,0.1,3.1,0.3L80.2,78c-1-0.3-2.1-0.4-3.1-0.4c-1.7,0-2.5,0.7-2.5,1.7c0,2.8,7,1.5,7,7
			C81.5,89.7,78.5,92,73.9,92z"/>
		<path d="M83.5,77.6v-2.7c2.2-0.3,4.8-0.4,7-0.3c0,0.9,0,2-0.2,2.9h0.1c1-2,2.8-3.2,5.3-3.2c4,0,6.2,2.9,6.2,7.9
			c0,5.9-3.1,9.6-9,9.6c-0.8,0-1.5,0-2.2-0.1v8.1h-4.3V78C85.7,77.8,84.5,77.7,83.5,77.6z M94.5,77.9c-2.3,0-3.7,2.7-3.7,5.6v4.7
			c0.7,0.2,1.4,0.3,2.3,0.3c2.5,0,4.3-1.6,4.3-5.8C97.4,79.5,96.5,77.9,94.5,77.9z"/>
		<path d="M111.7,91.6h-4.3V78c-0.8-0.1-2-0.3-3-0.3v-2.7c2.2-0.3,4.8-0.4,7.3-0.3V91.6z M109.5,72.4c-1.5,0-2.7-1.2-2.7-2.7
			c0-1.4,1.2-2.6,2.7-2.6c1.5,0,2.7,1.2,2.7,2.6C112.3,71.2,111,72.4,109.5,72.4z"/>
		<path d="M123.4,92c-3.8,0-4.9-1.4-4.9-5.3V78h-2.9v-3.4h2.9v-5.2l4.4-1.2v6.4h4.1V78h-4.1v7.5c0,2.2,0.5,2.8,2,2.8
			c0.7,0,1.5-0.1,2.1-0.3v3.5C125.9,91.8,124.6,92,123.4,92z"/>
		<path d="M130.7,91.6v-3.1l6.8-10c-0.7,0-2,0.1-3.6,0.1h-3v-3.9h11.9v3.1l-6.7,9.9c0.7,0,2.6,0,3.9,0h3v4H130.7z"/>
		<path d="M160.9,83.8h-10.5c0,3.2,1.5,4.7,4.7,4.7c1.7,0,3.5-0.4,5-1.1l0.4,3.4c-1.8,0.7-4,1.1-6.1,1.1c-5.4,0-8.4-2.7-8.4-8.7
			c0-5.2,2.9-9,8-9c5,0,7.1,3.4,7.1,7.6C161.1,82.4,161,83.1,160.9,83.8z M153.8,77.5c-1.8,0-3.1,1.3-3.3,3.4h6.3
			C156.8,78.7,155.6,77.5,153.8,77.5z"/>
	</g>
	<g>
		<path d="M32.5,110v8.4h-1.3V110h-2.7v-1.1h6.8v1.1H32.5z"/>
		<path d="M40.3,118.5c-2.9,0-4.2-1.9-4.2-4.8c0-3.2,2-5,4.5-5c2.6,0,4.2,1.7,4.2,4.8C44.8,116.7,42.8,118.5,40.3,118.5z
			 M40.4,109.9c-1.6,0-3,1.3-3,3.7c0,2.3,1,3.8,3,3.8c1.5,0,3-1.2,3-3.7C43.4,111.2,42.3,109.9,40.4,109.9z"/>
		<path d="M49,114.8c-0.2,0-0.5,0-0.8,0v3.6H47v-9.5c0.7,0,1.5-0.1,2.3-0.1c2.2,0,3.4,1.1,3.4,2.8C52.7,113.5,51.2,114.8,49,114.8z
			 M49.2,109.9c-0.4,0-0.6,0-0.9,0v3.7c0.2,0,0.5,0.1,0.8,0.1c1.4,0,2.3-0.8,2.3-2C51.3,110.6,50.6,109.9,49.2,109.9z"/>
		<path d="M61.8,118.5c-2.9,0-4.2-1.9-4.2-4.8c0-3.2,2-5,4.5-5c2.6,0,4.2,1.7,4.2,4.8C66.3,116.7,64.3,118.5,61.8,118.5z
			 M61.9,109.9c-1.6,0-3,1.3-3,3.7c0,2.3,1,3.8,3,3.8c1.5,0,3-1.2,3-3.7C64.9,111.2,63.8,109.9,61.9,109.9z"/>
		<path d="M69.7,110v3.1h3.4v1h-3.4v4.3h-1.3v-9.5h4.8v1.1H69.7z"/>
		<path d="M85.8,110.4c-0.8-0.3-1.7-0.5-2.5-0.5c-2,0-3.6,1.3-3.6,3.8c0,2.4,1.4,3.7,3.5,3.7c0.6,0,1.2-0.1,1.7-0.3v-3.6h1.3v4.4
			c-0.9,0.4-2.1,0.5-3.1,0.5c-2.9,0-4.7-1.7-4.7-4.7c0-2.9,1.9-5.1,5.1-5.1c0.9,0,1.8,0.1,2.6,0.4L85.8,110.4z"/>
		<path d="M88.9,118.4v-9.5h4.9v1.1h-3.6v3h3.4v1h-3.4v3.3h3.6v1.1H88.9z"/>
		<path d="M100.8,118.4l-3.2-4.3h-0.1v4.3h-1.3v-9.5c0.6,0,1.3-0.1,2.4-0.1c1.9,0,3.2,0.7,3.2,2.5c0,1.6-1.2,2.6-2.9,2.7
			c0.3,0.3,0.6,0.7,0.8,1l2.7,3.4H100.8z M98.4,109.9c-0.3,0-0.6,0-0.9,0v3.2c0.1,0,0.4,0,0.8,0c1.4,0,2.1-0.7,2.1-1.7
			C100.5,110.3,99.8,109.9,98.4,109.9z"/>
		<path d="M113.8,118.4l-0.8-5.5c-0.2-1.1-0.2-1.8-0.3-2.3h0c-0.1,0.5-0.2,1-0.5,1.7l-2,6.1h-1.4l-1.9-5.7c-0.2-0.7-0.5-1.5-0.6-2.1
			h0c-0.1,0.8-0.2,1.5-0.3,2.5l-0.6,5.4H104l1.4-9.5h1.6l2,6c0.2,0.7,0.4,1.3,0.5,1.9h0c0.1-0.7,0.3-1.1,0.5-1.8l2.1-6.1h1.6
			l1.4,9.5H113.8z"/>
		<path d="M123.2,118.4l-0.8-2.2h-4l-0.8,2.2h-1.3l3.5-9.5h1.4l3.5,9.5H123.2z M120.9,111.7c-0.2-0.5-0.3-0.9-0.4-1.4h0
			c-0.1,0.5-0.3,1-0.4,1.4l-1.2,3.4h3.3L120.9,111.7z"/>
		<path d="M132.3,118.4l-3.6-5.9c-0.4-0.7-0.8-1.3-1.1-2c0.1,1,0.1,3.3,0.1,4.8v3h-1.3v-9.5h1.7l3.5,5.7c0.4,0.7,0.8,1.4,1.2,2.1
			c-0.1-1.2-0.1-3.5-0.1-5.1v-2.7h1.3v9.5H132.3z"/>
		<path d="M140,115v3.4h-1.3V115l-3-6.1h1.4l1.5,3.2c0.3,0.6,0.5,1.1,0.7,1.6h0c0.2-0.6,0.5-1.2,0.8-1.8l1.5-3h1.3L140,115z"/>
	</g>
	<g>
		<path class="st0" d="M125,41.4c0,4.8-3.9,8.7-8.6,8.7H55.8c-4.8,0-8.7-3.9-8.7-8.7V8.5c0-4.8,3.9-8.7,8.7-8.7h60.6
			c4.8,0,8.6,3.9,8.6,8.7V41.4z"/>
	</g>
	<path class="st1" d="M116.4-0.1H55.8c-4.8,0-8.7,3.9-8.7,8.7v30.1c11.1-3.7,23.8-7.2,34.1-7.9c-2.8-1-6-2.2-8.5-3.2
		c-0.6-0.3-2.5-1-3.9-1.8c-0.4-0.2-0.9-0.6-1.2-1.1c-0.4-0.7,0-2.5,0.4-2.9c0.5-0.6,1.4-0.8,1.9-0.9c1-0.1,6.1-0.3,6.5-0.4
		c4.2-0.2,9.4-0.2,13.3-0.3c1.5,0,2.9-0.1,3.9-0.2c0.1,0,0.1-0.1,0-0.2c-0.6-0.3-1.3-0.6-2.1-1c-1.4-0.6-2.9-1-4.1-1.5
		c-0.3-0.1-1.3-0.6-1.8-0.8c-0.4-0.2-0.8-0.4-1.1-0.9c-0.2-0.4,0.3-2.4,0.5-2.7c0.3-0.5,0.5-0.6,0.9-0.7c0.4-0.1,3.7-0.3,3.7-0.3
		c1.2-0.1,2.5-0.2,3.9-0.3c5.6-0.6,9-3.5,9.9-4.5c0.1-0.1,0.3-0.3,0.4-0.4c0.4-0.2,2.2,0.3,2.5,0.4c0.3,0.2,0.4,0.5,0.4,0.7h0
		c0.1,4.6,1.5,17,8.1,29.2c2.5,4.7,4.9,8.3,7,11.1c1.8-1.6,3-3.9,3-6.5V8.5C125,3.8,121.1-0.1,116.4-0.1z M103.7,10.9
		c-2.1,1.5-5.3,3.1-9.7,3.6c-1.4,0.2-2.7,0.3-3.8,0.3c1.5,0.5,4,1.6,4.7,1.9c0.7,0.3,1.1,0.5,1.5,0.8c0.5,0.3,1.1,0.6,1.5,1.3
		c0.4,0.7-0.2,2.6-0.5,3.2c-0.4,0.5-0.8,0.7-1.4,0.8c-0.7,0.1-3.3,0.2-3.6,0.3c-2.1,0.1-4.9,0.1-7.7,0.2c-4.4,0-9.3,0.2-12.1,0.5
		c-0.1,0-0.1,0.2,0,0.2c0.2,0.1,0.4,0.2,0.6,0.3c1.4,0.6,3.3,1.4,5.2,2.1c3.8,1.4,8.8,3.2,9.9,3.7c1.4,0.6,1.5,0.7,1.8,1.1
		c0.3,0.5,0,1.5-0.2,1.9c-0.3,0.7-0.7,0.8-1.3,0.8c-15.7,0.7-30,6.2-40.4,11.6c1.5,2.7,4.3,4.5,7.6,4.5h59.3
		c-1.4-2.6-2.9-5.7-4.4-9.5C105.6,27.9,103.9,16.8,103.7,10.9z"/>
</g>
</svg>
