<svg viewBox="0 0 1024 1054.237" xmlns="http://www.w3.org/2000/svg"><path d="M1019.548 1023.072H0V978.55h1019.548zm-487.513-22.26h-44.522V660.664h44.522zm212.368 0H699.88V660.664h44.523zm-637.55 0H62.33V575.627h44.522zm212.813 0h-44.522V660.664h44.522zm637.55 0h-44.52V575.627h44.52zm62.332-317.886H0v-44.522h1019.548zM84.59 468.776c35.655 0 64.558 28.903 64.558 64.557S120.245 597.89 84.59 597.89c-35.653 0-64.556-28.903-64.556-64.557.05-35.633 28.923-64.506 64.552-64.557h.005zm0 84.592c11.066 0 20.036-8.97 20.036-20.035s-8.97-20.035-20.035-20.035c-11.064 0-20.034 8.97-20.034 20.035.025 11.055 8.98 20.01 20.032 20.035h.002zm850.367-84.592c35.654 0 64.557 28.903 64.557 64.557s-28.903 64.557-64.557 64.557-64.557-28.903-64.557-64.557c.05-35.633 28.923-64.506 64.552-64.557h.005zm0 84.592c11.065 0 20.035-8.97 20.035-20.035s-8.97-20.035-20.035-20.035-20.035 8.97-20.035 20.035c.025 11.055 8.98 20.01 20.032 20.035h.002zM509.774 43.594c153.116.177 277.193 124.255 277.37 277.354v362.424h-554.74V320.965c.176-153.116 124.254-277.193 277.353-277.37h.017zm232.85 595.256V320.965c0-128.6-104.25-232.85-232.85-232.85s-232.85 104.25-232.85 232.85V638.85zm-210.59 21.815h-44.52V65.855h44.52zm232.85-232.403h-510.22V383.74h510.22z"/></svg>