<svg viewBox="0 0 984 1054.237" xmlns="http://www.w3.org/2000/svg"><path d="M87.197 1045.333H42.48V917.445h44.717zM0 681.79h983.755v258.013H0zm939.04 44.717H44.715v168.58H939.04zM246.832 466.26H738.71c112.81.126 204.227 91.542 204.354 204.34v53.67H42.48v-53.658c.128-112.81 91.544-204.226 204.342-204.353h.012zm651.515 213.295v-8.943c-.102-88.124-71.513-159.535-159.627-159.637H246.834c-88.124.102-159.535 71.513-159.637 159.627v8.953zM278.135 297.68h85.855c82.938.1 150.145 67.307 150.246 150.235V515H127.888v-67.075c.118-41.56 16.976-79.158 44.182-106.427l-.003.003c27.022-27.073 64.38-43.82 105.65-43.82h.44-.023zM469.52 470.282v-22.358c-.076-58.252-47.278-105.454-105.523-105.53h-86.16c-28.982 0-55.218 11.758-74.198 30.764h-.002c-19.112 19.154-30.955 45.57-31.033 74.75v22.373zM619.766 297.68h85.408c82.938.1 150.145 67.307 150.246 150.235V515h-385.9v-67.075c.102-82.938 67.308-150.145 150.236-150.246h.01zm190.938 172.603v-22.358c-.076-58.252-47.278-105.454-105.523-105.53h-85.414c-58.252.076-105.454 47.278-105.53 105.523v22.365zm-682.816-343.42H855.42V513.21H127.888zm682.816 44.716h-638.1v296.914h638.1zm130.57 873.753H896.56V917.445h44.715zM172.605 149.22h-44.716V21.334h44.716zm683.263 0H811.15V21.334h44.717z"/></svg>