<svg viewBox="0 0 1067 1059.981" xmlns="http://www.w3.org/2000/svg"><path d="M956.754 1045.333H110.377V488.81h46.377v510.146h753.623V488.81h46.377zm88.58-488.812h-1024v-78.84l512-418.597 512 418.597zM67.71 510.146h931.246v-10.342l-465.623-380.8-465.623 380.8zM599.188 732.29h135.42v313.043h-135.42zm89.044 46.376h-42.667v220.29h42.667zm-355.71-46.376h135.42v135.42h-135.42zm89.043 46.376h-42.667v42.667h42.667zm645.102 266.667H0v-46.377h1066.667zM156.754 416h-46.377V21.333h224V270.84H288V67.71H156.754zM400.232 67.71H44.522V21.333h355.71z"/></svg>