<svg viewBox="0 0 1026.425 1063.18" xmlns="http://www.w3.org/2000/svg"><path d="M514.425 21.333c282.763.01 511.984 229.236 511.984 512 0 141.38-57.305 269.378-149.954 362.03C783.568 989.47 654.59 1047.76 512 1047.76c-282.77 0-512-229.23-512-512 0-142.592 58.29-271.57 152.34-364.403l.055-.054C244.54 78.663 372.1 21.333 513.053 21.333h1.448-.074zm0 977.455c257.063 0 465.455-208.39 465.455-465.455S771.49 67.878 514.425 67.878c-257.063 0-465.455 208.39-465.455 465.455.29 256.946 208.508 465.163 465.427 465.455h.028zm23.273-243.433h-46.545v-287.65h-65.63v-46.546H537.7zm65.63 23.273H425.522v-46.545h177.804zm-44.685-444.044h-88.436V288.04h88.436z"/></svg>