<svg viewBox="0 0 1024 1060.382" xmlns="http://www.w3.org/2000/svg"><path d="M298.356 21.333H742.4c61.92.08 112.095 50.254 112.175 112.167v799.66c-.08 61.92-50.254 112.094-112.167 112.174H298.356c-61.92-.08-112.095-50.254-112.175-112.167v-799.66c.08-61.92 50.255-112.094 112.168-112.174h.008zM742.4 998.788c36.225-.053 65.576-29.404 65.63-65.624V133.508c-.054-36.225-29.405-65.576-65.625-65.63h-444.05c-36.224.054-65.575 29.405-65.628 65.625V933.16c.053 36.224 29.404 65.575 65.624 65.628h.006zM387.258 44.606h266.705V91.15c0 25.707-20.84 46.546-46.545 46.546H431.476c-25.706 0-46.545-20.84-46.545-46.545V44.607zm177.338 867.607H476.16v-46.545h88.436z"/></svg>