<svg viewBox="0 0 1024 1063.18" xmlns="http://www.w3.org/2000/svg"><path d="m518.516 21.333c209.153.238 378.64 169.726 378.88 378.857v.023c-2.127 86.978-23.2 168.545-59.222 241.402l1.506-3.368c-36.918 77.66-78.55 144.505-126.677 206.02l1.796-2.383c-55.865 73.068-115.204 137.72-179.82 196.69l-1.15 1.036-15.313 13.36-15.313-13.406c-65.765-60.004-125.103-124.657-178.377-194.202l-2.59-3.523c-46.332-59.12-87.962-125.95-122.066-197.072l-2.816-6.52c-34.516-69.487-55.59-151.054-57.703-237.323l-.013-.71c.238-209.152 169.726-378.64 378.857-378.88h.023zm0 969.123c57.208-54.265 109.58-112.258 157.242-174.07l2.595-3.5c78.708-103.332 172.497-258.84 172.497-412.72 0-183.543-148.79-332.335-332.335-332.335s-332.335 148.792-332.335 332.336c0 260.655 265.17 527.034 332.335 590.29zm0-746.636c86.373 0 156.393 70.02 156.393 156.393s-70.02 156.393-156.394 156.393c-86.373 0-156.393-70.02-156.393-156.393.106-86.33 70.062-156.287 156.383-156.393h.01zm0 266.24c60.667 0 109.847-49.18 109.847-109.847s-49.18-109.847-109.847-109.847-109.847 49.18-109.847 109.847c.078 60.635 49.21 109.768 109.84 109.847z"/></svg>